<?xml version="1.0" encoding="UTF-8"?><svg id="Ebene_2" xmlns="http://www.w3.org/2000/svg" viewBox="0 0 351.12 360.41"><defs><style>.cls-1{fill:#fff;}</style></defs><g id="Ebene_1-2"><path class="cls-1" d="m126.08,182.21c0-6.75-.12-13.08.07-19.4.06-1.99,1.08-3.94,1.42-5.94.18-1.08.2-2.46-.33-3.33-4.42-7.19-8.28-14.86-13.61-21.31-28.51-34.52-12.46-87.32,30.56-99.61,26.5-7.58,54.65,3.05,69.52,26.24,14.78,23.04,12.53,52.7-4.94,73.9-5.16,6.26-8.87,13.73-13.22,20.66-.91,1.45-1.01,2.7.21,4.33.85,1.13.89,3.04.91,4.61.09,6.45.04,12.91.04,19.86h4.75c37.8,0,75.59.09,113.39-.07,7.25-.03,12.7,2.48,17,8.26,4.69,6.3,9.63,12.42,14.55,18.54,4.9,6.1,6.27,12.77,2.8,19.87-3.41,6.98-9.39,10.03-17.1,9.79-1.24-.04-2.47,0-4.31,0,0,1.81,0,3.38,0,4.96,0,29.44.04,58.89-.02,88.33-.03,13.88-7.79,24.44-20.23,27.51-2.87.71-5.92.97-8.89.97-83.45.05-166.91.05-250.36.03-17.99,0-29.24-11.25-29.25-29.15-.02-29.19,0-58.39,0-87.58,0-1.48,0-2.97,0-4.7-1.12-.16-2.06-.35-3-.43-12.26-1.11-19.9-14.32-14.02-25.17,4.62-8.53,9.99-16.68,15.42-24.73,3.31-4.91,8.53-6.46,14.39-6.44,29.81.07,59.63.03,89.44.03h4.81Zm79.8,168.18v-145.56c-5.12,8.17-9.97,15.42-14.31,22.97-4.45,7.74-10.75,10.92-19.68,10.88-46.14-.21-92.28-.1-138.42-.1-1.44,0-2.88,0-4.58,0v4.99c0,28.81,0,57.62,0,86.43,0,13.96,6.38,20.37,20.3,20.37,50.75,0,101.51,0,152.26,0,1.46,0,2.92,0,4.43,0Zm10.3-.26c.93.11,1.54.24,2.15.24,27.31.01,54.61.1,81.92-.04,10.93-.06,17.6-7.26,17.61-18.43.02-29.8.01-59.61,0-89.41,0-1.2-.13-2.4-.21-3.9-1.63,0-2.98,0-4.33,0-19.45,0-38.9-.06-58.35.03-6.48.03-11.55-2.41-15.49-7.5-5.5-7.09-11.09-14.12-16.64-21.17-2.03-2.58-4.08-5.14-6.65-8.38v148.56Zm-54.91-248.74c3.75-3.79,6.87-7.02,10.07-10.16,2.84-2.78,5.7-2.97,7.85-.66,2.03,2.18,1.77,4.88-.87,7.6-3.13,3.22-6.52,6.2-9.42,9.61-1.29,1.52-2.31,3.82-2.34,5.79-.21,12.59-.11,25.19-.1,37.79,0,1.21.12,2.42.2,3.97,4.95,0,9.66-.14,14.36.06,2.42.1,3.49-.83,4.33-2.99,3.73-9.6,9-18.24,15.69-26.14,10.11-11.92,14.23-25.79,12.08-41.38-2.98-21.65-19.4-39.18-41-43.81-21.29-4.56-43.48,5-55.13,23.76-11.55,18.59-10.34,42.96,3.6,59.81,7.23,8.74,13.25,18.04,17.47,28.55.34.86,1.39,2.01,2.14,2.03,5.31.18,10.63.09,16.35.09,0-9.89.03-19.34-.01-28.8-.03-5.47,1.21-11.5-.68-16.26-1.78-4.49-6.91-7.65-10.56-11.39-.17-.18-.36-.35-.53-.53-2.68-2.8-3.04-5.78-.96-7.88,2.19-2.21,5.01-1.96,7.84.9,3.15,3.17,6.19,6.46,9.61,10.04Zm40.79,90.84c-1.13-.1-1.5-.17-1.87-.17-56.26,0-112.51,0-168.77-.04-3.36,0-5.62,1.41-7.33,4.22-3.83,6.28-7.72,12.52-11.7,18.71-1.98,3.08-3.4,6.15-1.46,9.75,1.95,3.61,5.26,4.09,8.95,4.07,17.59-.06,35.18-.03,52.76-.03,33.43,0,66.86-.05,100.29.06,4.49.01,7.57-1.53,9.78-5.45,2.38-4.23,5.12-8.26,7.69-12.39,3.8-6.1,7.59-12.2,11.65-18.73Zm19.3-.18c9.32,11.82,17.88,22.99,26.88,33.8,1.47,1.76,4.8,2.75,7.28,2.77,25.57.2,51.14.1,76.72.14,3.52,0,6.43-.96,8.08-4.26,1.72-3.44.71-6.47-1.58-9.33-4.91-6.13-9.83-12.26-14.56-18.54-2.46-3.27-5.34-4.68-9.53-4.66-29.56.14-59.13.08-88.69.08h-4.6Zm-85.16-26.69v16.66h50.33v-16.66h-50.33Z"/><path class="cls-1" d="m156.53,11.64c0-2.36-.13-4.74.03-7.09.19-2.74,1.86-4.41,4.56-4.55,2.89-.14,4.94,1.52,5.09,4.37.25,5.09.24,10.21-.04,15.29-.15,2.66-2.09,4.22-4.87,4.15-2.76-.06-4.48-1.62-4.7-4.34-.21-2.6-.05-5.22-.05-7.83,0,0-.01,0-.02,0Z"/><path class="cls-1" d="m226.45,26.37c1.09.84,3.02,1.6,3.55,2.92.6,1.47.61,4.03-.31,5.1-3.4,3.96-7.16,7.64-11.04,11.15-1.86,1.68-4.58,1.57-6-.47-1.01-1.46-1.74-4.62-.91-5.6,3.67-4.36,7.92-8.22,12.03-12.2.48-.46,1.38-.48,2.69-.9Z"/><path class="cls-1" d="m107.43,145.42c1.05.78,2.98,1.51,3.54,2.83.62,1.46.67,4.04-.24,5.1-3.39,3.97-7.07,7.76-11.09,11.07-1.16.95-4.39.81-5.63-.16-1.22-.96-2.17-4.49-1.43-5.36,3.82-4.53,8.21-8.58,12.46-12.75.39-.38,1.16-.37,2.4-.73Z"/><path class="cls-1" d="m107.37,47.21c-1.8-1.04-3.25-1.55-4.28-2.52-3.18-2.98-6.26-6.09-9.27-9.25-2.41-2.53-2.47-5.19-.38-7.29,2.07-2.08,4.79-2.03,7.28.35,3.25,3.1,6.57,6.16,9.42,9.61,1.05,1.27,1.49,3.74,1.05,5.35-.4,1.44-2.39,2.43-3.83,3.76Z"/><path class="cls-1" d="m245.47,100.94c-2.36,0-4.71.08-7.07-.02-2.92-.12-4.67-1.75-4.77-4.65-.1-2.9,1.6-4.88,4.43-5.01,5.07-.25,10.17-.27,15.23.04,2.82.17,4.43,2.29,4.22,5.17-.2,2.67-1.83,4.32-4.61,4.44-2.48.1-4.96.02-7.44.02,0,0,0,.01,0,.02Z"/><path class="cls-1" d="m77.24,100.94c-2.37,0-4.74.08-7.11-.02-2.73-.11-4.48-1.53-4.75-4.31-.28-2.96,1.28-5.11,4.09-5.29,5.21-.33,10.47-.3,15.69.02,2.64.16,4.24,2.27,4.08,4.98-.15,2.65-1.72,4.43-4.53,4.57-2.49.13-4.99.03-7.48.03,0,0,0,.02,0,.03Z"/><path class="cls-1" d="m210.64,149.98c.88-1.12,1.67-3.04,3-3.57,1.48-.58,4.03-.57,5.11.36,3.95,3.41,7.62,7.18,11.12,11.06,1.69,1.88,1.52,4.66-.55,5.98-1.57,1-4.81,1.58-5.93.66-4.21-3.45-7.89-7.57-11.69-11.52-.54-.57-.59-1.6-1.06-2.98Z"/><path class="cls-1" d="m278.12,310.37c-6.6,0-13.2.03-19.8,0-3.84-.02-6.23-1.96-6.22-4.92,0-2.97,2.35-4.87,6.24-4.88,13.45-.03,26.9-.03,40.34,0,3.9,0,6.23,1.9,6.22,4.89,0,2.96-2.39,4.89-6.24,4.91-6.85.04-13.7,0-20.54,0Z"/><path class="cls-1" d="m278.89,323.83c6.72,0,13.45-.03,20.17.01,3.58.02,5.87,1.97,5.9,4.84.03,2.87-2.26,4.93-5.8,4.94-13.7.04-27.4.04-41.09,0-3.6-.01-5.86-1.96-5.89-4.85-.03-2.9,2.24-4.91,5.8-4.93,6.97-.05,13.95-.01,20.92-.02Z"/></g></svg>