<?xml version="1.0" encoding="UTF-8"?><svg id="Ebene_2" xmlns="http://www.w3.org/2000/svg" viewBox="0 0 22.75 22.75"><g id="Ebene_1-2"><g id="Bildmaterial_2"><g id="Gruppe_30"><path id="Pfad_72" d="m11.27,7.35c2.35,0,4.25,1.9,4.25,4.25s-1.9,4.25-4.25,4.25-4.25-1.9-4.25-4.25c0-2.35,1.9-4.25,4.25-4.25m0-2.13c-3.52,0-6.38,2.86-6.38,6.38s2.86,6.38,6.38,6.38,6.38-2.86,6.38-6.38h0c0-3.52-2.86-6.38-6.38-6.38Z"/><circle id="Ellipse_3" cx="17.59" cy="5.21" r="1.4"/><g id="Gruppe_29"><path id="Pfad_73" d="m17.57,22.75H5.18c-2.86,0-5.18-2.32-5.18-5.18V5.18C0,2.32,2.32,0,5.18,0h12.38c2.86,0,5.18,2.32,5.18,5.18v12.38c0,2.86-2.32,5.18-5.18,5.18ZM5.18,1.78c-1.88,0-3.41,1.53-3.41,3.41v12.38c0,1.88,1.53,3.41,3.41,3.41h12.38c1.88,0,3.41-1.53,3.41-3.41V5.18c0-1.88-1.53-3.41-3.41-3.41H5.18Z"/></g></g></g></g></svg>