<?xml version="1.0" encoding="UTF-8"?><svg id="Ebene_2" xmlns="http://www.w3.org/2000/svg" viewBox="0 0 23 23"><defs><style>.cls-1{fill:#fff;}</style></defs><g id="Ebene_1-2"><g id="Bildmaterial_3"><g id="Gruppe_59"><g id="Gruppe_57"><path id="Pfad_99" class="cls-1" d="m20.33,23H2.68c-1.48,0-2.68-1.2-2.68-2.68V2.68C0,1.2,1.2,0,2.68,0h17.65c1.48,0,2.67,1.2,2.67,2.68v17.65c0,1.48-1.2,2.67-2.67,2.68ZM2.68,1.8c-.49,0-.88.39-.88.88v17.64c0,.49.39.88.88.88h17.65c.49,0,.88-.39.88-.88V2.68c0-.49-.39-.88-.88-.88H2.68Z"/></g><g id="Gruppe_58"><path id="Pfad_100" class="cls-1" d="m5.76,7.32c-.42,0-.82-.15-1.13-.43-.63-.64-.63-1.66,0-2.3.31-.28.71-.44,1.13-.43.43-.01.84.14,1.15.43.61.65.61,1.65,0,2.3-.31.29-.72.45-1.15.43Zm-1.2,11.75v-10.42h2.43v10.42h-2.43Z"/><path id="Pfad_101" class="cls-1" d="m8.8,19.07v-10.42h2.38v1.46h.36c.23-.45.57-.83.99-1.12.65-.4,1.41-.58,2.17-.53.75-.01,1.48.18,2.13.55.61.36,1.11.89,1.45,1.52.36.71.54,1.5.52,2.3v6.24h-2.43v-6.05c.05-.69-.17-1.37-.62-1.89-.48-.44-1.11-.66-1.76-.62-.77-.04-1.51.28-2.02.85-.53.7-.8,1.56-.74,2.44v5.27h-2.42Z"/></g></g></g></g></svg>