<?xml version="1.0" encoding="UTF-8"?>
<svg xmlns="http://www.w3.org/2000/svg" viewBox="0 0 1080 1080">
    <defs>
        <style>.cls-1{fill:none;stroke:#000;stroke-linecap:round;stroke-miterlimit:1;stroke-width:4px;}</style>
    </defs>
    <g id="Linie1">
        <line class="cls-1" x1="524.15" y1="129.11" x2="168.3" y2="334.55" />
    </g>
    <g id="Linie2">
        <line class="cls-1" x1="879.99" y1="334.55" x2="524.15" y2="129.11" />
    </g>
    <g id="Linie3">
        <line class="cls-1" x1="524.15" y1="540" x2="879.99" y2="334.55" />
    </g>
    <g id="Linie5">
        <line class="cls-1" x1="168.3" y1="334.55" x2="524.15" y2="540" />
    </g>
    <g id="Linie6">
        <line class="cls-1" x1="168.3" y1="334.55" x2="168.3" y2="540" />
    </g>
    <g id="Linie7">
        <line class="cls-1" x1="524.15" y1="334.55" x2="524.15" y2="129.11" />
    </g>
    <g id="Linie8">
        <line class="cls-1" x1="524.15" y1="334.55" x2="168.3" y2="540" />
    </g>
    <g id="Linie9">
        <line class="cls-1" x1="879.99" y1="540" x2="524.15" y2="334.55" />
    </g>
    <g id="Linie10">
        <line class="cls-1" x1="524.15" y1="745.45" x2="879.99" y2="540" />
    </g>
    <g id="Linie11">
        <line class="cls-1" x1="168.3" y1="540" x2="524.15" y2="745.45" />
    </g>
    <g id="Linie12">
        <line class="cls-1" x1="879.99" y1="745.45" x2="879.99" y2="540" />
    </g>
    <g id="Linie13">
        <line class="cls-1" x1="524.15" y1="745.45" x2="524.15" y2="950.89" />
    </g>
    <g id="Linie14">
        <line class="cls-1" x1="524.15" y1="540" x2="168.3" y2="745.45" />
    </g>
    <g id="Linie15">
        <line class="cls-1" x1="879.99" y1="745.45" x2="524.15" y2="540" />
    </g>
    <g id="Linie16">
        <line class="cls-1" x1="524.15" y1="950.89" x2="879.99" y2="745.45" />
    </g>
    <g id="Linie17">
        <line class="cls-1" x1="168.3" y1="745.45" x2="524.15" y2="950.89" />
    </g>
</svg>