# Blender v2.91.0 OBJ File: 'sommerhalder websolutions.blend'
# www.blender.org
mtllib sommerhalder websolutions.mtl
o Plane
v -1.010000 1.000000 1.000000
v -0.990000 1.000000 1.000000
v -1.010000 0.000000 1.000000
v -0.990000 0.000000 1.000000
v -1.010000 1.000000 -1.000000
v -0.990000 1.000000 -1.000000
v -1.010000 0.000000 -1.000000
v -0.990000 0.000000 -1.000000
v -1.000000 0.990000 0.990000
v -1.000000 0.010000 0.990000
v -1.000000 0.010000 -0.990000
v -1.000000 0.990000 -0.990000
vt 0.000000 0.000000
vt 1.000000 0.000000
vt 1.000000 0.000000
vt 0.000000 0.000000
vt 0.000000 0.000000
vt 1.000000 0.000000
vt 1.000000 1.000000
vt 1.000000 1.000000
vt 1.000000 1.000000
vt 0.000000 1.000000
vt 0.000000 1.000000
vt 0.000000 1.000000
vn -0.7071 0.0000 -0.7071
vn 0.7071 0.0000 -0.7071
vn -0.7071 0.7071 0.0000
vn 0.7071 0.7071 0.0000
vn -0.7071 0.0000 0.7071
vn 0.7071 0.0000 0.7071
vn -0.7071 -0.7071 0.0000
vn 0.7071 -0.7071 0.0000
usemtl None
s off
f 9/1/1 10/2/1 3/3/1 1/4/1
f 10/2/2 9/1/2 2/5/2 4/6/2
f 10/2/3 11/7/3 7/8/3 3/3/3
f 11/7/4 10/2/4 4/6/4 8/9/4
f 11/7/5 12/10/5 5/11/5 7/8/5
f 12/10/6 11/7/6 8/9/6 6/12/6
f 12/10/7 9/1/7 1/4/7 5/11/7
f 9/1/8 12/10/8 6/12/8 2/5/8
o Plane.001
v -1.000000 0.990000 1.000000
v -1.000000 1.010000 1.000000
v 1.000000 0.990000 1.000000
v 1.000000 1.010000 1.000000
v -1.000000 0.990000 -1.000000
v -1.000000 1.010000 -1.000000
v 1.000000 0.990000 -1.000000
v 1.000000 1.010000 -1.000000
v -0.990000 1.000000 0.990000
v 0.990000 1.000000 0.990000
v 0.990000 1.000000 -0.990000
v -0.990000 1.000000 -0.990000
vt 0.000000 0.000000
vt 1.000000 0.000000
vt 1.000000 0.000000
vt 0.000000 0.000000
vt 0.000000 0.000000
vt 1.000000 0.000000
vt 1.000000 1.000000
vt 1.000000 1.000000
vt 1.000000 1.000000
vt 0.000000 1.000000
vt 0.000000 1.000000
vt 0.000000 1.000000
vn 0.0000 -0.7071 -0.7071
vn 0.0000 0.7071 -0.7071
vn -0.7071 -0.7071 0.0000
vn -0.7071 0.7071 0.0000
vn 0.0000 -0.7071 0.7071
vn 0.0000 0.7071 0.7071
vn 0.7071 -0.7071 0.0000
vn 0.7071 0.7071 0.0000
usemtl None
s off
f 21/13/9 22/14/9 15/15/9 13/16/9
f 22/14/10 21/13/10 14/17/10 16/18/10
f 22/14/11 23/19/11 19/20/11 15/15/11
f 23/19/12 22/14/12 16/18/12 20/21/12
f 23/19/13 24/22/13 17/23/13 19/20/13
f 24/22/14 23/19/14 20/21/14 18/24/14
f 24/22/15 21/13/15 13/16/15 17/23/15
f 21/13/16 24/22/16 18/24/16 14/17/16
o Plane.002
v -1.000000 -1.010000 1.000000
v -1.000000 -0.990000 1.000000
v 1.000000 -1.010000 1.000000
v 1.000000 -0.990000 1.000000
v -1.000000 -1.010000 -1.000000
v -1.000000 -0.990000 -1.000000
v 1.000000 -1.010000 -1.000000
v 1.000000 -0.990000 -1.000000
v -0.990000 -1.000000 0.990000
v 0.990000 -1.000000 0.990000
v 0.990000 -1.000000 -0.990000
v -0.990000 -1.000000 -0.990000
vt 0.000000 0.000000
vt 1.000000 0.000000
vt 1.000000 0.000000
vt 0.000000 0.000000
vt 0.000000 0.000000
vt 1.000000 0.000000
vt 1.000000 1.000000
vt 1.000000 1.000000
vt 1.000000 1.000000
vt 0.000000 1.000000
vt 0.000000 1.000000
vt 0.000000 1.000000
vn 0.0000 -0.7071 -0.7071
vn 0.0000 0.7071 -0.7071
vn -0.7071 -0.7071 0.0000
vn -0.7071 0.7071 0.0000
vn 0.0000 -0.7071 0.7071
vn 0.0000 0.7071 0.7071
vn 0.7071 -0.7071 0.0000
vn 0.7071 0.7071 0.0000
usemtl None
s off
f 33/25/17 34/26/17 27/27/17 25/28/17
f 34/26/18 33/25/18 26/29/18 28/30/18
f 34/26/19 35/31/19 31/32/19 27/27/19
f 35/31/20 34/26/20 28/30/20 32/33/20
f 35/31/21 36/34/21 29/35/21 31/32/21
f 36/34/22 35/31/22 32/33/22 30/36/22
f 36/34/23 33/25/23 25/28/23 29/35/23
f 33/25/24 36/34/24 30/36/24 26/29/24
o Plane.003
v -1.000000 -0.010000 1.000000
v -1.000000 0.010000 1.000000
v 1.000000 -0.010000 1.000000
v 1.000000 0.010000 1.000000
v -1.000000 -0.010000 -1.000000
v -1.000000 0.010000 -1.000000
v 1.000000 -0.010000 -1.000000
v 1.000000 0.010000 -1.000000
v -0.990000 0.000000 0.990000
v 0.990000 0.000000 0.990000
v 0.990000 0.000000 -0.990000
v -0.990000 0.000000 -0.990000
vt 0.000000 0.000000
vt 1.000000 0.000000
vt 1.000000 0.000000
vt 0.000000 0.000000
vt 0.000000 0.000000
vt 1.000000 0.000000
vt 1.000000 1.000000
vt 1.000000 1.000000
vt 1.000000 1.000000
vt 0.000000 1.000000
vt 0.000000 1.000000
vt 0.000000 1.000000
vn 0.0000 -0.7071 -0.7071
vn 0.0000 0.7071 -0.7071
vn -0.7071 -0.7071 0.0000
vn -0.7071 0.7071 0.0000
vn 0.0000 -0.7071 0.7071
vn 0.0000 0.7071 0.7071
vn 0.7071 -0.7071 0.0000
vn 0.7071 0.7071 0.0000
usemtl None
s off
f 45/37/25 46/38/25 39/39/25 37/40/25
f 46/38/26 45/37/26 38/41/26 40/42/26
f 46/38/27 47/43/27 43/44/27 39/39/27
f 47/43/28 46/38/28 40/42/28 44/45/28
f 47/43/29 48/46/29 41/47/29 43/44/29
f 48/46/30 47/43/30 44/45/30 42/48/30
f 48/46/31 45/37/31 37/40/31 41/47/31
f 45/37/32 48/46/32 42/48/32 38/41/32
o Plane.004
v 0.990000 0.000000 1.000000
v 1.010000 0.000000 1.000000
v 0.990000 -1.000000 1.000000
v 1.010000 -1.000000 1.000000
v 0.990000 0.000000 -1.000000
v 1.010000 0.000000 -1.000000
v 0.990000 -1.000000 -1.000000
v 1.010000 -1.000000 -1.000000
v 1.000000 -0.010000 0.990000
v 1.000000 -0.990000 0.990000
v 1.000000 -0.990000 -0.990000
v 1.000000 -0.010000 -0.990000
vt 0.000000 0.000000
vt 1.000000 0.000000
vt 1.000000 0.000000
vt 0.000000 0.000000
vt 0.000000 0.000000
vt 1.000000 0.000000
vt 1.000000 1.000000
vt 1.000000 1.000000
vt 1.000000 1.000000
vt 0.000000 1.000000
vt 0.000000 1.000000
vt 0.000000 1.000000
vn -0.7071 0.0000 -0.7071
vn 0.7071 0.0000 -0.7071
vn -0.7071 0.7071 0.0000
vn 0.7071 0.7071 0.0000
vn -0.7071 0.0000 0.7071
vn 0.7071 0.0000 0.7071
vn -0.7071 -0.7071 0.0000
vn 0.7071 -0.7071 0.0000
usemtl None
s off
f 57/49/33 58/50/33 51/51/33 49/52/33
f 58/50/34 57/49/34 50/53/34 52/54/34
f 58/50/35 59/55/35 55/56/35 51/51/35
f 59/55/36 58/50/36 52/54/36 56/57/36
f 59/55/37 60/58/37 53/59/37 55/56/37
f 60/58/38 59/55/38 56/57/38 54/60/38
f 60/58/39 57/49/39 49/52/39 53/59/39
f 57/49/40 60/58/40 54/60/40 50/53/40
