<?xml version="1.0" encoding="UTF-8"?><svg id="Ebene_2" xmlns="http://www.w3.org/2000/svg" viewBox="0 0 124.44 102.7"><defs><style>.cls-1{fill:#fff;stroke:#000;stroke-miterlimit:10;stroke-width:2px;}</style></defs><g id="Illu9"><rect class="cls-1" x="15.78" y="53.16" width="19" height="48.52" transform="translate(-47.34 40.55) rotate(-45)"/><rect class="cls-1" x="74.9" y="67.35" width="48.52" height="19" transform="translate(-25.3 92.62) rotate(-45)"/><rect class="cls-1" x="70.11" y="58.06" width="34.65" height="14.14" transform="translate(-20.45 80.91) rotate(-45)"/><rect class="cls-1" x="29.93" y="48.38" width="14.14" height="34.65" transform="translate(-35.62 45.41) rotate(-45)"/><polyline class="cls-1" points="54.25 72.95 58.75 68.95 73.62 68.95"/><path class="cls-1" d="m86.12,40.43l3.21-3.21c2.21-2.21,5.8-2.21,8.01,0h0c2.21,2.21,2.21,5.8,0,8.01l-20.58,20.58"/><path class="cls-1" d="m79.59,30.44l3.3-3.3c2.28-2.28,5.98-2.28,8.26,0h0c2.28,2.28,2.28,5.98,0,8.26l-4.62,4.62"/><path class="cls-1" d="m73.36,20.15l3.3-3.3c2.28-2.28,5.98-2.28,8.26,0h0c2.28,2.28,2.28,5.98,0,8.26l-4.62,4.62"/><rect class="cls-1" x="46.93" y=".02" width="11.86" height="27.06" rx="5.44" ry="5.44" transform="translate(5.9 41.34) rotate(-45)"/><path class="cls-1" d="m67.08-4.89h0c1.66,0,3.01,1.35,3.01,3.01v18.11c0,3.27-2.66,5.93-5.93,5.93h0c-3.27,0-5.93-2.66-5.93-5.93V3.96c0-4.89,3.97-8.85,8.85-8.85Z" transform="translate(45.01 70.48) rotate(-80.46)"/><rect class="cls-1" x="39.6" y="10.98" width="11.86" height="24.05" rx="5.44" ry="5.44" transform="translate(-2.93 38.93) rotate(-45)"/><rect class="cls-1" x="32.28" y="21.94" width="11.86" height="21.03" rx="5.44" ry="5.44" transform="translate(-11.76 36.52) rotate(-45)"/><rect class="cls-1" x="25.92" y="35.23" width="11.86" height="15.29" rx="5.44" ry="5.44" transform="translate(-20.99 35.08) rotate(-45)"/><path class="cls-1" d="m62.35,14.65l8.29-8.29c2.28-2.28,5.98-2.28,8.26,0h0c2.28,2.28,2.28,5.98,0,8.26l-5.53,5.53"/><path class="cls-1" d="m62.77,15.07c2.13,2.13,2.13,5.57,0,7.7l-.69.69c-2.13,2.13-5.57,2.13-7.7,0"/></g></svg>