<?xml version="1.0" encoding="UTF-8"?><svg id="Ebene_2" xmlns="http://www.w3.org/2000/svg" viewBox="0 0 93.76 124.68"><defs><style>.cls-1{fill:none;}.cls-1,.cls-2{stroke:#000;stroke-miterlimit:10;stroke-width:2px;}.cls-2{fill:#fff;}</style></defs><g id="Illu8"><path class="cls-2" d="m75.71,51h-11.02c.05-.33.08-.66.08-1,0-3.87-3.13-7-7-7s-7,3.13-7,7c0,.34.03.67.08,1h-12.08v11.08c-.33-.05-.66-.08-1-.08-3.87,0-7,3.13-7,7s3.13,7,7,7c.34,0,.67-.03,1-.08v17.08h-16.17v30.68h30.64v-24.49c0-2.12-.07-4.2.53-6.19,1.21-4.05,3.98-7.69,7.39-10.32,8.88-6.84,14.61-17.57,14.61-29.65v-2.03h-.06Z"/><path class="cls-2" d="m22.59,98.47c-.09-2.34-.28-4.68-.45-7.36s-1.48-5.28-3.63-6.99C4.41,72.88.76,65,1.03,51h11.73"/><path class="cls-2" d="m30.76,35c0-3.87,3.13-7,7-7,.34,0,.67.03,1,.08v-12.08h-1.52c-5.15,0-10.27,1.04-14.92,3.27C10.3,25.02,1.76,37.04,1.02,50.99h.01s11.73.01,11.73.01c0-3.87,3.13-7,7-7s7,3.13,7,7h12v-9.08c-.33.05-.66.08-1,.08-3.87,0-7-3.13-7-7Z"/><path class="cls-2" d="m26.76,51c0-3.87-3.13-7-7-7s-7,3.13-7,7"/><path class="cls-2" d="m58.76,1h-2v13.08c-.33-.05-.66-.08-1-.08-3.87,0-7,3.13-7,7s3.13,7,7,7c.34,0,.67-.03,1-.08v7.08h12.08c-.05-.33-.08-.66-.08-1,0-3.87,3.13-7,7-7s7,3.13,7,7c0,.34-.03.67-.08,1h10.08c0-18.78-15.22-34-34-34Z"/><path class="cls-2" d="m82.68,35c.05-.33.08-.66.08-1,0-3.87-3.13-7-7-7s-7,3.13-7,7c0,.34.03.67.08,1"/><line class="cls-1" x1="38.76" y1="93" x2="53.76" y2="93"/><line class="cls-1" x1="22.76" y1="104" x2="52.76" y2="104"/><line class="cls-1" x1="22.76" y1="114" x2="52.76" y2="114"/></g></svg>