<?xml version="1.0" encoding="utf-8"?>
<!-- Generator: Adobe Illustrator 28.1.0, SVG Export Plug-In . SVG Version: 6.00 Build 0)  -->
<svg version="1.1" id="Ebene_1" xmlns="http://www.w3.org/2000/svg" xmlns:xlink="http://www.w3.org/1999/xlink" x="0px" y="0px"
	 viewBox="0 0 460.7 283.7" style="enable-background:new 0 0 460.7 283.7;" xml:space="preserve">
<style type="text/css">
	.st0{fill:#FF8C00;}
	.st1{fill:#6B4A2B;}
	.st2{fill:#F01A1C;}
	.st3{fill:none;}
</style>
<g id="MVB_Bremgarten">
	<path class="st0" d="M458.5,208.3h-15.4v7.3h6.9v6c-1.3,0.5-3.1,0.9-4.9,0.9c-8.2,0-13.1-5.8-13.1-12.8s5.2-12.8,13.2-12.8
		c4.4,0,8.7,1.6,12,4V192c-3.1-1.7-7.3-3-12.2-3c-12.7,0-21.8,8.9-21.8,20.7c0,11.8,9,20.4,21.7,20.4c5,0,10-1.3,13.5-3.3
		L458.5,208.3L458.5,208.3z M409.7,229.4h8.2v-39.8h-8.4v14.8c0,3.9,0,7.7,0.1,11.5l-0.1,0.1c-2.5-3.5-4.9-6.8-7.5-10.3l-11.9-16.1
		h-8.2v39.8h8.4v-14.8c0-3.9-0.1-7.7-0.1-11.5l0.1-0.1c2.5,3.5,4.9,6.8,7.5,10.3L409.7,229.4L409.7,229.4z M375.1,189.6h-8.4v20.5
		c0,4.2-0.5,6.9-1.7,8.8c-1.3,2-3.6,3.3-7,3.3c-3.7,0-6-1.5-7.3-3.5c-1.1-1.9-1.5-4.4-1.5-8.7v-20.4h-8.7v20.7c0,5.7,0.8,10,3,13.2
		c2.8,4.1,8,6.5,14.4,6.5s11.5-2.4,14.3-6.4c2.3-3.2,3.1-7.5,3.1-13.5L375.1,189.6L375.1,189.6z M315.6,229.4h8.7v-32.2h12.9v-7.6
		h-34.5v7.6h12.9L315.6,229.4L315.6,229.4z M283.4,210c1.3-3.4,2.7-7.3,3.7-10.3h0.1c1,3,2.5,7,3.6,10.1l1.6,4.4h-10.7L283.4,210
		L283.4,210z M266.9,229.4h9l3.2-8.4h16.1l3.2,8.4h9.4l-16.2-39.8h-8.5L266.9,229.4L266.9,229.4z M241.7,207.2v-9.9h3.4
		c3,0,5.2,0.3,6.5,1c1.6,0.8,2.3,2,2.3,3.9s-0.8,3.2-2.3,4c-1.3,0.7-3.1,0.9-5.5,0.9L241.7,207.2L241.7,207.2z M233,229.4h8.8v-15.7
		h3.9l10.1,15.7h10.1l-11.2-16.8c5.3-1.7,8.1-5.9,8.1-11c0-4.6-1.9-7.5-4.8-9.4c-3.2-2-7.6-2.6-12.4-2.6H233L233,229.4L233,229.4z
		 M202.2,229.4h25.2v-7.6h-16.4v-9.5h13.6v-7.3h-13.6v-7.8h15.8v-7.6h-24.6V229.4L202.2,229.4z M175.9,222v-9.9h5.2
		c4.7,0,7.1,1.6,7.1,5.1c0,1.8-0.6,3.2-2.5,4c-1.3,0.5-3.5,0.8-6.6,0.8L175.9,222L175.9,222z M175.9,206.1v-9h2.7
		c2.3,0,4.7,0.2,6.2,1c1.5,0.8,1.9,2.2,1.9,3.5c0,3.2-2.5,4.6-6.1,4.6H175.9L175.9,206.1z M167.2,229.4H179c4.2,0,7.6-0.5,10.4-1.5
		c5.1-1.9,7.6-5.6,7.6-10.4s-2.5-8.2-7.6-9.7v-0.1c3.6-1.3,6-3.8,6-8.1c0-3.3-1.4-6-4.5-7.7c-2.7-1.5-6.7-2.3-12.1-2.3h-11.6
		L167.2,229.4L167.2,229.4z"/>
	<path class="st1" d="M136.6,208.1v-13.8h5.2c3.9,0,6.4,0.2,8.5,1.3c2.1,1.1,3.2,3.1,3.2,5.7c0,2.2-0.9,3.9-2.4,4.9
		c-1.8,1.4-4.3,1.8-7.8,1.8L136.6,208.1L136.6,208.1z M131.4,229.4h5.2v-17.1h6.8l12.1,17.1h6.3l-12.8-17.6c1.6-0.3,3.1-0.8,4.6-1.6
		c3-1.8,5.1-5.1,5.1-9.4s-2.2-7.5-5.5-9.3c-3.2-1.8-7.1-2-11.1-2h-10.8V229.4z M102.6,229.4h23.5v-4.7h-18.3V211h15.6v-4.6h-15.6
		v-12.1h17.8v-4.7h-23L102.6,229.4L102.6,229.4z M79.8,229.4h5.2v-35.1h13.4v-4.7h-32v4.7h13.4L79.8,229.4L79.8,229.4z M44.1,181.2
		c0,1.6,1.4,3,3,3s3-1.4,3-3s-1.4-3-3-3S44.1,179.6,44.1,181.2 M54.9,181.2c0,1.6,1.4,3,3,3s3-1.4,3-3s-1.4-3-3-3
		S54.9,179.6,54.9,181.2 M48.5,205.7c1.4-3.4,2.7-6.8,3.9-10h0.1c1.2,3.2,2.5,6.6,3.8,9.9l3.2,8.2H45.2L48.5,205.7L48.5,205.7z
		 M33.6,229.4h5.3l4.5-11.1h17.9l4.4,11.1h5.6L55,189.6h-5L33.6,229.4z M16.9,229.4h5.3l15.3-39.8h-5.3l-8.5,22.2
		c-1.4,3.6-2.7,7.1-4,10.7h-0.1c-1.3-3.7-2.6-7.1-3.9-10.6l-8.5-22.3H1.5L16.9,229.4L16.9,229.4z"/>
	<path class="st1" d="M342.9,164.7v-30.4h5.2c4.3,0,8.6,0.4,12.1,2.8c3.6,2.4,6.4,6.6,6.4,12.4s-2.7,10.1-6.5,12.5
		c-3.2,2-7.1,2.6-11.9,2.6H342.9z M337.6,169.4h9.7c6.9,0,12.3-1,16.5-4c5.1-3.6,8-9.5,8-16.1c0-6.9-3.2-13-9-16.5
		c-4-2.4-8.9-3.2-14.2-3.2h-11V169.4L337.6,169.4z M300.5,169.4v-20c0-3.9-0.1-7.9-0.1-11.3l0.1-0.1c2.3,3.1,4.6,6.3,6.9,9.3
		l16.8,22.1h5v-39.8h-5.1v20c0,3.9,0.1,7.9,0.1,11.3l-0.1,0.1c-2.3-3.1-4.6-6.3-6.9-9.3l-16.8-22.1h-5v39.8L300.5,169.4L300.5,169.4
		z M257.7,163.8c2.5,3.8,7.2,6.2,13.5,6.2s11-2.4,13.6-6.2c2.3-3.5,2.7-8,2.7-13.8v-20.5h-5.1v20.7c0,4.5-0.2,7.7-1.5,10.1
		c-1.6,2.9-4.6,4.8-9.4,4.8c-5.3,0-8.2-2.2-9.5-4.8c-1.2-2.3-1.5-5.4-1.5-10.3v-20.5H255v21.1C255,155.6,255.3,160.3,257.7,163.8
		 M221.1,151.8h13.2v-4.4h-13.2L221.1,151.8L221.1,151.8z M194.7,148.1v-13.8h5.2c3.9,0,6.4,0.2,8.6,1.3c2.1,1.1,3.3,3.1,3.3,5.7
		c0,2.2-0.9,3.9-2.4,4.9c-1.8,1.4-4.3,1.8-7.9,1.8L194.7,148.1L194.7,148.1z M189.4,169.4h5.3v-17.1h6.8l12.3,17.1h6.4l-12.9-17.5
		c1.7-0.3,3.2-0.8,4.6-1.6c3.1-1.8,5.2-5.1,5.2-9.4s-2.2-7.5-5.6-9.3c-3.3-1.8-7.2-2-11.2-2h-10.9L189.4,169.4L189.4,169.4z
		 M160.4,169.4h23.7v-4.7h-18.4V151h15.7v-4.6h-15.7v-12.1h17.9v-4.7h-23.2V169.4L160.4,169.4z M137.4,169.4h5.3v-35.1h13.5v-4.7
		h-32.3v4.7h13.5L137.4,169.4L137.4,169.4z M102.4,169.4h5.3v-35.1h13.5v-4.7H88.9v4.7h13.5L102.4,169.4L102.4,169.4z M60.2,121.2
		c0,1.6,1.4,3,3.1,3s3.1-1.4,3.1-3s-1.4-3-3.1-3S60.2,119.6,60.2,121.2 M71.1,121.2c0,1.6,1.4,3,3.1,3s3.1-1.4,3.1-3s-1.4-3-3.1-3
		S71.1,119.6,71.1,121.2 M55.1,163.8c2.5,3.8,7.2,6.2,13.5,6.2s11.1-2.4,13.6-6.2c2.3-3.5,2.7-8,2.7-13.8v-20.5h-5.1v20.7
		c0,4.5-0.2,7.7-1.5,10.1c-1.6,2.9-4.6,4.8-9.4,4.8c-5.3,0-8.2-2.2-9.6-4.8c-1.2-2.3-1.6-5.4-1.6-10.3v-20.5h-5.3v21.1
		C52.5,155.6,52.8,160.3,55.1,163.8 M25,158.6l8.8-12.4c1.8-2.6,3.6-5.2,5.4-7.9l0.1,0.1c-0.1,2.4-0.1,5.4-0.1,8.6v22.4h5.3v-39.8
		h-5.1l-14.3,20.2l-14.3-20.2H5.8v39.8h5.1V147c0-3.2-0.1-6.3-0.1-8.6l0.1-0.1c1.8,2.6,3.6,5.3,5.4,7.9L25,158.6L25,158.6z"/>
	<path class="st0" d="M235.2,1.6c-12.9,0-23.4,10.5-23.4,23.4s10.5,23.4,23.4,23.4s23.4-10.5,23.4-23.4S248.1,1.6,235.2,1.6
		L235.2,1.6z"/>
	<path class="st0" d="M226.1,109.4h49.2l-25-63.8c-4.2,3.1-9.4,4.9-15,4.9s-10.8-1.8-15-4.9l-9.5,24.2L226.1,109.4L226.1,109.4z"/>
	<path class="st2" d="M223.8,109.4l-15.9-41.1c-3,2.2-6.7,3.4-10.7,3.4s-7.6-1.3-10.7-3.4l-15.9,41.1H223.8L223.8,109.4z"/>
	<path class="st2" d="M197.2,37c-9,0-16.3,7.3-16.3,16.3s7.3,16.3,16.3,16.3s16.3-7.3,16.3-16.3S206.2,37,197.2,37z"/>
	<path class="st1" d="M178.8,53.3c0-1.1,0.1-2.1,0.3-3.1c-1.1,0.1-2.2,0.2-3.3,0.2c-5.8,0-11.1-1.9-15.4-5.2L136,109.4h32.4
		l16.5-42.5C181.1,63.6,178.8,58.7,178.8,53.3L178.8,53.3z"/>
	<path class="st1" d="M196.9,34.9c1.4-3,2.2-6.4,2.2-9.9c0-12.9-10.5-23.4-23.4-23.4S152.4,12.1,152.4,25s10.5,23.4,23.4,23.4
		c1.3,0,2.6-0.1,3.8-0.3C181.8,40.5,188.7,35,196.9,34.9L196.9,34.9z"/>
	<path class="st0" d="M168.8,249.7h6.7c3,0,5,0.3,6.7,1.3c1.9,1.1,2.9,2.8,2.9,5.1c0,2.8-1.7,4.5-3.8,5.2v0.1
		c2.9,0.7,4.8,2.6,4.8,5.8c0,2.4-1,4.4-2.9,5.7c-1.8,1.2-4.2,1.6-7.8,1.6h-6.6V249.7L168.8,249.7z M177,260.5c2.5,0,4.8-1.2,4.8-3.9
		c0-1.5-0.7-2.5-1.8-3.1c-1.2-0.7-2.5-0.9-5-0.9h-3v7.9L177,260.5L177,260.5z M175.6,271.5c2.8,0,4.4-0.3,5.6-1.1
		c0.8-0.5,1.6-1.6,1.6-3.2c0-2.7-2.2-4.2-5.9-4.2h-4.8v8.5L175.6,271.5L175.6,271.5z"/>
	<path class="st0" d="M192.5,266.9c0.4,3.3,2.9,5.1,6.3,5.1c2.4,0,4.3-0.9,5.9-2.1v3.3c-1.5,1-3.9,1.6-6.1,1.6
		c-5.3,0-9.2-3.5-9.2-8.8s3.9-8.8,8.5-8.8c4.1,0,7.8,2.9,7.8,8.1c0,0.5,0,1.1-0.1,1.5L192.5,266.9L192.5,266.9z M192.6,264.5h10
		c-0.3-3.4-2.8-4.5-4.8-4.5C195.6,260,193.1,261.4,192.6,264.5z"/>
	<path class="st0" d="M207.6,274.5L207.6,274.5l9.3-14l0-0.1h-8.6v-2.8h14.1l0,0.1l-9.3,13.9l0,0.1h9.1v2.8H207.6z"/>
	<path class="st0" d="M227.2,249.7c1.2,0,2.2,1,2.2,2.2s-1,2.2-2.2,2.2s-2.2-1-2.2-2.2S226,249.7,227.2,249.7z M225.6,257.6h3.1
		v16.9h-3.1V257.6z"/>
	<path class="st0" d="M233.9,257.6h3.1v2.5l0.1,0c1.2-1.6,3-2.6,5-2.6c0.4,0,0.7,0,1.1,0.1v3c-0.4-0.1-0.8-0.1-1.2-0.1
		c-2.3,0-3.9,1.2-5,3v11h-3.1V257.6L233.9,257.6z"/>
	<path class="st0" d="M246.3,248.3h3.1V265l0.1,0l7.6-7.4h4l-7.8,7.5l8.6,9.3h-4.1l-8.3-9.1l-0.1,0v9.1h-3.1V248.3z"/>
	<path class="st0" d="M273.4,249.7h6.7c3,0,5,0.3,6.7,1.3c1.9,1.1,2.9,2.8,2.9,5.1c0,2.8-1.7,4.5-3.8,5.2v0.1
		c2.9,0.7,4.8,2.6,4.8,5.8c0,2.4-1,4.4-2.9,5.7c-1.8,1.2-4.2,1.6-7.8,1.6h-6.6L273.4,249.7L273.4,249.7z M281.6,260.5
		c2.5,0,4.8-1.2,4.8-3.9c0-1.5-0.7-2.5-1.8-3.1c-1.2-0.7-2.5-0.9-5-0.9h-3v7.9L281.6,260.5L281.6,260.5z M280.2,271.5
		c2.8,0,4.4-0.3,5.6-1.1c0.8-0.5,1.6-1.6,1.6-3.2c0-2.7-2.2-4.2-5.9-4.2h-4.8v8.5L280.2,271.5L280.2,271.5z"/>
	<path class="st0" d="M295.1,257.6h3.1v2.5l0.1,0c1.2-1.6,3-2.6,5-2.6c0.4,0,0.7,0,1.1,0.1v3c-0.4-0.1-0.8-0.1-1.2-0.1
		c-2.3,0-3.9,1.2-5,3v11h-3.1V257.6L295.1,257.6z"/>
	<path class="st0" d="M309.4,266.9c0.5,3.3,2.9,5.1,6.3,5.1c2.4,0,4.3-0.9,5.9-2.1v3.3c-1.5,1-3.9,1.6-6.1,1.6
		c-5.3,0-9.2-3.5-9.2-8.8s3.9-8.8,8.5-8.8c4.1,0,7.8,2.9,7.8,8.1c0,0.5,0,1.1-0.1,1.5L309.4,266.9L309.4,266.9z M309.5,264.5h10
		c-0.3-3.4-2.8-4.5-4.8-4.5C312.5,260,310,261.4,309.5,264.5z"/>
	<path class="st0" d="M350.2,264.5c0-1.6-0.2-2.6-0.9-3.4c-0.7-0.8-1.7-1-2.6-1c-2,0-4,1.3-5.2,2.6c0,0.4,0,0.8,0,1.2v10.5h-3.1v-10
		c0-1.8-0.2-2.6-0.8-3.3c-0.7-0.8-1.6-1.1-2.6-1.1c-2,0-4,1.2-5.2,2.6v11.7h-3.1v-16.9h3.1v2.1l0.1,0c1.4-1.4,3.4-2.5,5.8-2.5
		c2.1,0,4.2,0.9,5.2,2.9c2-1.9,4.1-2.9,6.5-2.9c1.8,0,3.4,0.6,4.5,1.8c1,1.1,1.4,2.6,1.4,4.9v10.5h-3.1L350.2,264.5L350.2,264.5z"/>
	<path class="st0" d="M359.7,277.8c1.6,1.1,3.5,1.8,5.4,1.8c3.2,0,5.4-1.9,5.4-5.1v-1.2l-0.1,0c-1.2,0.8-2.8,1.3-4.6,1.3
		c-4.6,0-8.3-3.5-8.3-8.4s3.3-8.8,8.8-8.8c1.8,0,3.2,0.4,4.3,1l3-0.5v16.7c0,4.9-3.3,8-8.5,8c-2.1,0-4-0.5-5.4-1.3V277.8
		L359.7,277.8z M366.3,271.8c1.6,0,3.2-0.5,4.2-1.4v-9.3c-1.1-0.6-2.7-1.2-4.3-1.2c-3.4,0-5.6,2.6-5.6,5.9S362.9,271.8,366.3,271.8
		L366.3,271.8z"/>
	<path class="st0" d="M379.6,273.6c-1.1-0.8-1.8-2.1-1.8-3.7c0-1.9,0.9-3.2,2.2-4.1c1.3-0.8,3-1.1,4.8-1.1c1.3,0,2.5,0.2,3.6,0.5
		v-1.4c0-1.2-0.3-2.2-1-2.8c-0.7-0.6-1.7-0.9-3.1-0.9c-2.1,0-3.9,0.8-5.2,1.7v-3c1.3-0.8,3.1-1.4,5.7-1.4c2.1,0,3.9,0.5,5.1,1.5
		c1,0.9,1.7,2.3,1.7,4.4v7.2c0,1,0.4,1.8,1.3,1.8c0.4,0,0.7-0.1,1-0.2v2.6c-0.4,0.2-1,0.3-1.7,0.3c-1.4,0-2.6-0.6-3.3-1.8h-0.1
		c-1,0.9-2.9,1.9-5.2,1.9C382.2,274.9,380.7,274.5,379.6,273.6L379.6,273.6z M388.4,270.6v-3.1c-0.9-0.3-2.2-0.5-3.3-0.5
		c-2.1,0-4.2,0.6-4.2,2.6c0,1.6,1.4,2.5,3.2,2.5C385.8,272.1,387.4,271.4,388.4,270.6L388.4,270.6z"/>
	<path class="st0" d="M397.2,257.6h3.1v2.5l0.1,0c1.2-1.6,3-2.6,5-2.6c0.4,0,0.7,0,1.1,0.1v3c-0.4-0.1-0.8-0.1-1.2-0.1
		c-2.3,0-3.9,1.2-5,3v11h-3.1V257.6L397.2,257.6z"/>
	<path class="st0" d="M411.9,268.6v-8.2h-3.1v-2.8h3.1V253l3.1-0.5v5.1h5.1v2.8H415v7.6c0,2.1,0.3,4,2.6,4c0.9,0,1.9-0.3,2.6-0.7
		v2.9c-0.7,0.3-1.9,0.6-3.1,0.6c-1.2,0-2.8-0.3-3.9-1.6C412.4,272.3,411.9,271,411.9,268.6L411.9,268.6z"/>
	<path class="st0" d="M425.4,266.9c0.5,3.3,2.9,5.1,6.3,5.1c2.4,0,4.3-0.9,5.9-2.1v3.3c-1.5,1-3.9,1.6-6.1,1.6
		c-5.3,0-9.2-3.5-9.2-8.8s3.9-8.8,8.5-8.8c4.1,0,7.8,2.9,7.8,8.1c0,0.5,0,1.1-0.1,1.5L425.4,266.9L425.4,266.9z M425.5,264.5h10
		c-0.3-3.4-2.8-4.5-4.8-4.5C428.5,260,426,261.4,425.5,264.5z"/>
	<path class="st0" d="M442.8,257.6h3.1v2.1l0.1,0c1.5-1.5,3.6-2.5,6-2.5c1.9,0,3.5,0.6,4.5,1.9c0.9,1.1,1.4,2.4,1.4,5v10.4h-3.1
		v-9.8c0-1.8-0.2-2.8-0.8-3.4c-0.7-0.8-1.8-1.1-2.7-1.1c-1.9,0-4.1,1.2-5.3,2.8v11.5h-3.1L442.8,257.6L442.8,257.6z"/>
</g>
<g id="Schutzzone">
	<rect x="-34.1" y="129.6" class="st3" width="39.8" height="39.8"/>
	<rect x="458.5" y="190.6" class="st3" width="39.8" height="39.8"/>
	<rect x="217.3" y="274.5" class="st3" width="39.8" height="39.8"/>
	<rect x="217.3" y="-38.2" class="st3" width="39.8" height="39.8"/>
</g>
</svg>
